<svg width="50" height="50" viewBox="0 0 50 50" fill="none" xmlns="http://www.w3.org/2000/svg">
<g filter="url(#filter0_d_2004_26)">
<rect x="10" y="10" width="30" height="30" rx="15" fill="url(#paint0_linear_2004_26)"/>
</g>
<path d="M25 17C29.4183 17 33 20.5817 33 25C33 29.4183 29.4183 33 25 33C20.5817 33 17 29.4183 17 25C17 20.5817 20.5817 17 25 17ZM25 19.1338C25.0239 19.1569 27.2324 21.3007 27.2324 25.1865C27.2323 29.0932 25 30.8672 25 30.8672C25 30.8672 31.5109 30.7675 31.3252 25.1865C31.1394 19.6123 25.0156 19.135 25 19.1338Z" fill="white"/>
<defs>
<filter id="filter0_d_2004_26" x="0" y="0" width="50" height="50" filterUnits="userSpaceOnUse" color-interpolation-filters="sRGB">
<feFlood flood-opacity="0" result="BackgroundImageFix"/>
<feColorMatrix in="SourceAlpha" type="matrix" values="0 0 0 0 0 0 0 0 0 0 0 0 0 0 0 0 0 0 127 0" result="hardAlpha"/>
<feOffset/>
<feGaussianBlur stdDeviation="5"/>
<feColorMatrix type="matrix" values="0 0 0 0 0.364706 0 0 0 0 0.34902 0 0 0 0 0.415686 0 0 0 0.7 0"/>
<feBlend mode="normal" in2="BackgroundImageFix" result="effect1_dropShadow_2004_26"/>
<feBlend mode="normal" in="SourceGraphic" in2="effect1_dropShadow_2004_26" result="shape"/>
</filter>
<linearGradient id="paint0_linear_2004_26" x1="10.1934" y1="10" x2="10.1934" y2="39.6132" gradientUnits="userSpaceOnUse">
<stop stop-color="#595761"/>
<stop offset="1" stop-color="#6E7587"/>
</linearGradient>
</defs>
</svg>
