<svg width="50" height="50" viewBox="0 0 50 50" fill="none" xmlns="http://www.w3.org/2000/svg">
<g filter="url(#filter0_d_2004_33)">
<rect x="10" y="10" width="30" height="30" rx="15" fill="url(#paint0_linear_2004_33)"/>
</g>
<path fill-rule="evenodd" clip-rule="evenodd" d="M25.7804 24.965C25.8888 24.8989 25.9808 24.7603 26.055 24.6063C27.0314 25.0054 27.7176 25.9484 27.7176 27.0481C27.7176 28.5091 26.5066 29.6934 25.0129 29.6934C24.3997 29.6934 24.0781 29.6406 23.5156 29.3398C23.1953 29.1338 23.1093 29.0193 23.0091 28.9639C22.8537 28.878 22.7518 28.8217 22.6879 28.8305C22.5014 28.8562 22.5556 29.0278 22.6048 29.1837C22.6382 29.2896 22.6693 29.3883 22.6211 29.429C22.5707 29.4716 22.4073 29.3158 22.2164 29.1338C21.9565 28.886 21.6457 28.5896 21.4991 28.6787C21.3832 28.7491 21.4957 28.94 21.6334 29.1738L21.6437 29.1911C21.7019 29.29 21.7693 29.3905 21.8308 29.4824C21.9559 29.669 22.0567 29.8193 22.0062 29.8448C21.9453 29.8755 21.5208 29.589 21.163 29.1911C21.0249 29.0376 20.8911 28.8711 20.7668 28.7165C20.4947 28.3779 20.268 28.0959 20.1408 28.1293C19.9877 28.1695 20.1035 28.4852 20.2736 28.7891C20.3532 28.9312 20.4468 29.0759 20.5279 29.2011C20.6539 29.396 20.7495 29.5438 20.7148 29.562C20.668 29.5865 20.2561 29.1848 19.9764 28.6787C19.8102 28.378 19.6707 28.0458 19.5577 27.7768C19.4352 27.4851 19.3439 27.2678 19.2838 27.2459C19.0751 27.1699 19.0751 27.5956 19.1588 28.21C19.1697 28.2901 19.186 28.3741 19.206 28.4597C20.018 31.087 22.5124 33 25.4637 33C29.0735 33 31.9999 30.1379 31.9999 26.6072C31.9999 23.2469 29.349 20.4921 25.9809 20.2342C25.9852 20.0759 26.0678 19.762 26.0678 19.762C26.0678 19.762 26.6624 18.3233 26.6938 18.0159C26.6959 17.9955 26.6984 17.9734 26.701 17.9497C26.7381 17.6176 26.807 17 26.2756 17C25.9919 17 25.8599 17.2111 25.709 17.4525C25.6511 17.5452 25.5904 17.6423 25.5172 17.7337C24.9901 18.392 24.1037 19.214 23.6011 19.652C22.5388 20.5776 21.4965 21.3384 20.8887 21.7821C20.6122 21.9839 20.4256 22.1201 20.3678 22.1764C19.9326 22.6006 18.3722 25.4152 18.3722 25.4152C18.3722 25.4152 17.8676 26.3182 18.047 26.5013C18.2263 26.6845 18.6589 26.6425 18.6589 26.6425C18.6589 26.6425 24.4695 25.3095 24.9897 25.2043C25.1298 25.176 25.2287 25.1597 25.3046 25.1472C25.5107 25.1131 25.5477 25.107 25.7804 24.965ZM21.672 23.252C21.3601 23.5485 20.8428 24.2561 20.8428 24.2561C20.8428 24.2561 21.8042 24.3154 22.3337 23.8121C22.8632 23.3088 22.7419 22.451 22.7419 22.451C22.7419 22.451 21.9839 22.9555 21.672 23.252Z" fill="white"/>
<defs>
<filter id="filter0_d_2004_33" x="0" y="0" width="50" height="50" filterUnits="userSpaceOnUse" color-interpolation-filters="sRGB">
<feFlood flood-opacity="0" result="BackgroundImageFix"/>
<feColorMatrix in="SourceAlpha" type="matrix" values="0 0 0 0 0 0 0 0 0 0 0 0 0 0 0 0 0 0 127 0" result="hardAlpha"/>
<feOffset/>
<feGaussianBlur stdDeviation="5"/>
<feColorMatrix type="matrix" values="0 0 0 0 0.027451 0 0 0 0 0.427451 0 0 0 0 0.752941 0 0 0 0.7 0"/>
<feBlend mode="normal" in2="BackgroundImageFix" result="effect1_dropShadow_2004_33"/>
<feBlend mode="normal" in="SourceGraphic" in2="effect1_dropShadow_2004_33" result="shape"/>
</filter>
<linearGradient id="paint0_linear_2004_33" x1="10.1934" y1="10" x2="10.1934" y2="39.6132" gradientUnits="userSpaceOnUse">
<stop stop-color="#0C69C8"/>
<stop offset="1" stop-color="#0180C7"/>
</linearGradient>
</defs>
</svg>
