<svg width="50" height="50" viewBox="0 0 50 50" fill="none" xmlns="http://www.w3.org/2000/svg">
<g filter="url(#filter0_d_2004_72)">
<rect x="10" y="10" width="30" height="30" rx="15" fill="url(#paint0_linear_2004_72)"/>
</g>
<path d="M24.3335 18C24.3543 18.0184 25.6823 19.1989 26.0552 20.7197C26.431 22.2525 25.1867 24.3396 26.7486 24.2578C28.3103 24.176 26.9527 21.7676 26.9527 21.7676C26.9527 21.7676 30.4957 23.6299 30.231 26.8867C29.9672 30.1314 26.3854 30.8783 26.3589 30.8838C26.3709 30.8739 27.3027 30.1053 27.4849 29.4404C27.6679 28.7712 27.313 27.3945 27.313 27.3945C27.313 27.3945 27.0554 28.5152 26.6529 28.9297C26.3094 29.283 25.8882 29.5264 25.2847 29.5908C25.7778 29.351 26.1177 28.8528 26.1177 28.2754C26.1175 27.4648 25.4491 26.8079 24.6246 26.8076C23.7998 26.8076 23.1306 27.4647 23.1304 28.2754C23.1304 28.4963 23.1812 28.7056 23.2701 28.8936C22.7548 28.4825 22.6724 27.8252 22.6724 27.8252C22.6724 27.8252 22.0967 30.2176 23.6841 31.3428C25.2716 32.4677 28.3814 31.501 28.3814 31.501C28.3814 31.501 23.931 34.6316 20.6333 31.2236C17.7928 28.2879 19.8921 24.4229 19.8921 24.4229C19.8921 24.4229 19.8013 24.782 19.8013 25.1982C19.8014 25.6097 20.022 25.9237 20.0269 25.9307C20.0356 25.9123 20.7037 24.5078 21.2242 23.9346C22.1016 22.9684 23.3721 22.3249 23.8706 21.7676C25.0601 20.4376 24.3394 18.0197 24.3335 18Z" fill="white"/>
<defs>
<filter id="filter0_d_2004_72" x="0" y="0" width="50" height="50" filterUnits="userSpaceOnUse" color-interpolation-filters="sRGB">
<feFlood flood-opacity="0" result="BackgroundImageFix"/>
<feColorMatrix in="SourceAlpha" type="matrix" values="0 0 0 0 0 0 0 0 0 0 0 0 0 0 0 0 0 0 127 0" result="hardAlpha"/>
<feOffset/>
<feGaussianBlur stdDeviation="5"/>
<feColorMatrix type="matrix" values="0 0 0 0 0.996078 0 0 0 0 0.619608 0 0 0 0 0.329412 0 0 0 0.7 0"/>
<feBlend mode="normal" in2="BackgroundImageFix" result="effect1_dropShadow_2004_72"/>
<feBlend mode="normal" in="SourceGraphic" in2="effect1_dropShadow_2004_72" result="shape"/>
</filter>
<linearGradient id="paint0_linear_2004_72" x1="10" y1="10" x2="10" y2="40" gradientUnits="userSpaceOnUse">
<stop stop-color="#FB9B51"/>
<stop offset="1" stop-color="#FBAE46"/>
</linearGradient>
</defs>
</svg>
