<svg width="50" height="50" viewBox="0 0 50 50" fill="none" xmlns="http://www.w3.org/2000/svg">
<g filter="url(#filter0_d_2004_96)">
<rect x="10" y="10" width="30" height="30" rx="15" fill="url(#paint0_linear_2004_96)"/>
</g>
<path d="M22.5288 22.2871C22.6683 22.2871 22.7657 22.4256 22.7183 22.5566L20.0699 29.8672C20.0411 29.9467 19.9659 29.9999 19.8814 30H17.6978C17.5576 29.9999 17.4603 29.8599 17.5093 29.7285L20.2476 22.418C20.277 22.3395 20.3523 22.2872 20.4361 22.2871H22.5288ZM28.6226 19C28.7079 19.0002 28.7839 19.0542 28.812 19.1348L32.4917 29.6895C32.5373 29.8201 32.4406 29.9569 32.3023 29.957H20.8687C20.8078 29.957 20.7655 29.8972 20.7857 29.8398L24.5738 19.1338C24.6022 19.0537 24.6782 19.0001 24.7632 19H28.6226Z" fill="white"/>
<defs>
<filter id="filter0_d_2004_96" x="0" y="0" width="50" height="50" filterUnits="userSpaceOnUse" color-interpolation-filters="sRGB">
<feFlood flood-opacity="0" result="BackgroundImageFix"/>
<feColorMatrix in="SourceAlpha" type="matrix" values="0 0 0 0 0 0 0 0 0 0 0 0 0 0 0 0 0 0 127 0" result="hardAlpha"/>
<feOffset/>
<feGaussianBlur stdDeviation="5"/>
<feColorMatrix type="matrix" values="0 0 0 0 0.847059 0 0 0 0 0.509804 0 0 0 0 0.333333 0 0 0 0.7 0"/>
<feBlend mode="normal" in2="BackgroundImageFix" result="effect1_dropShadow_2004_96"/>
<feBlend mode="normal" in="SourceGraphic" in2="effect1_dropShadow_2004_96" result="shape"/>
</filter>
<linearGradient id="paint0_linear_2004_96" x1="10.1934" y1="10" x2="10.1934" y2="39.6132" gradientUnits="userSpaceOnUse">
<stop stop-color="#DC7545"/>
<stop offset="1" stop-color="#D29463"/>
</linearGradient>
</defs>
</svg>
