<svg width="50" height="50" viewBox="0 0 50 50" fill="none" xmlns="http://www.w3.org/2000/svg">
<g filter="url(#filter0_d_2004_137)">
<rect x="10" y="10" width="30" height="30" rx="15" fill="url(#paint0_linear_2004_137)"/>
</g>
<path d="M27.9932 26.0303C28.0769 25.973 28.1914 25.9949 28.248 26.0791L29.54 28.001C29.5951 28.0829 29.5753 28.1944 29.4951 28.252L25.7393 30.9463C25.6919 30.9802 25.6305 30.9888 25.5752 30.9707L22.3271 29.9072L27.9932 26.0303ZM28.4043 20.0254C28.5156 20.0256 28.6012 20.1242 28.585 20.2344L27.8945 24.8633C27.887 24.913 27.8597 24.9577 27.8184 24.9863L21.1318 29.6025C21.085 29.6347 21.0257 29.6427 20.9717 29.625L18.126 28.6953C18.0509 28.6708 18.0001 28.6004 18 28.5215V25.5986C18 25.5561 18.0148 25.5142 18.042 25.4814L22.5107 20.0908C22.5454 20.0491 22.5971 20.0254 22.6514 20.0254H28.4043ZM29.8555 20C29.935 20.0002 30.0063 20.0521 30.0303 20.1279L31.9619 26.2432C31.9848 26.3158 31.9603 26.3954 31.9004 26.4424L30.6611 27.4102C30.58 27.4735 30.4623 27.457 30.4014 27.374L28.8535 25.2656C28.8243 25.2258 28.812 25.1757 28.8203 25.127L29.6738 20.1514C29.689 20.0639 29.7666 20 29.8555 20Z" fill="white"/>
<defs>
<filter id="filter0_d_2004_137" x="0" y="0" width="50" height="50" filterUnits="userSpaceOnUse" color-interpolation-filters="sRGB">
<feFlood flood-opacity="0" result="BackgroundImageFix"/>
<feColorMatrix in="SourceAlpha" type="matrix" values="0 0 0 0 0 0 0 0 0 0 0 0 0 0 0 0 0 0 127 0" result="hardAlpha"/>
<feOffset/>
<feGaussianBlur stdDeviation="5"/>
<feColorMatrix type="matrix" values="0 0 0 0 0.796078 0 0 0 0 0.756863 0 0 0 0 0.580392 0 0 0 0.7 0"/>
<feBlend mode="normal" in2="BackgroundImageFix" result="effect1_dropShadow_2004_137"/>
<feBlend mode="normal" in="SourceGraphic" in2="effect1_dropShadow_2004_137" result="shape"/>
</filter>
<linearGradient id="paint0_linear_2004_137" x1="10" y1="10" x2="10" y2="40" gradientUnits="userSpaceOnUse">
<stop stop-color="#C5B489"/>
<stop offset="1" stop-color="#D7CD90"/>
</linearGradient>
</defs>
</svg>
